# Blender 4.0.2
# www.blender.org
o light_base
v 2.250001 -0.669935 14.423775
v -2.249999 -0.669937 14.423775
v 2.249999 -0.669935 -14.408925
v -2.250001 -0.669937 -14.408925
v 2.250000 0.830065 14.423775
v -2.250000 0.830063 14.423775
v 2.249999 0.830065 -14.408925
v -2.250001 0.830063 -14.408925
v 4.049999 -0.669935 -12.617426
v 4.050000 -0.669935 12.602575
v -4.049999 -0.669937 12.602575
v -4.050000 -0.669937 -12.617426
v 4.050000 0.830065 12.602575
v 4.049999 0.830065 -12.617426
v -4.050000 0.830063 -12.617426
v -4.049999 0.830063 12.602575
v 1.350001 -0.669935 14.423775
v -1.349999 -0.669937 14.423775
v -1.350001 -0.669937 -14.408925
v 1.349999 -0.669935 -14.408925
v -1.350001 0.830063 -14.408925
v 1.349999 0.830065 -14.408925
v -1.349999 0.830063 14.423775
v 1.350001 0.830065 14.423775
v -1.350001 0.830063 -12.617426
v 1.349999 0.830065 -12.617426
v -1.349999 0.830063 12.602575
v 1.350000 0.830065 12.602575
v -1.349999 -1.310417 12.602575
v 1.350001 -1.310417 12.602575
v -1.350000 -1.310417 -12.617426
v 1.349999 -1.310417 -12.617426
vn -0.1694 -0.9519 -0.2552
vn -0.0000 -0.0000 -1.0000
vn -0.0000 1.0000 -0.0000
vn -0.0000 -0.0000 1.0000
vn 0.7112 -0.0000 0.7030
vn -0.7112 -0.0000 0.7030
vn -0.7054 -0.0000 -0.7088
vn -1.0000 -0.0000 -0.0000
vn 0.7054 -0.0000 -0.7088
vn 1.0000 -0.0000 -0.0000
vn -0.1695 -0.9529 0.2513
vn -0.2308 -0.9730 -0.0000
vn 0.2308 -0.9730 -0.0000
vn -0.0000 -1.0000 -0.0000
vn 0.1695 -0.9529 0.2513
vn -0.0000 -0.9434 0.3318
vn 0.1694 -0.9519 -0.2552
vn -0.0000 -0.9416 -0.3366
vt 0.238307 0.870525
vt 0.320234 0.872679
vt 0.266108 0.926280
vt 0.239083 0.926651
vt 0.266554 0.971463
vt 0.239445 0.971731
vt 0.648710 0.101314
vt 0.564177 0.101314
vt 0.620533 0.044294
vt 0.648710 0.044294
vt 0.238289 0.028043
vt 0.265529 0.028128
vt 0.265334 0.073514
vt 0.238166 0.073253
vt 0.426165 0.107238
vt 0.379202 0.107238
vt 0.379202 0.027069
vt 0.426165 0.027069
vt 0.507579 0.107238
vt 0.460616 0.107238
vt 0.460616 0.027069
vt 0.507579 0.027069
vt 0.507579 0.976355
vt 0.460616 0.976355
vt 0.460616 0.896844
vt 0.507579 0.896844
vt 0.426165 0.976355
vt 0.379202 0.976355
vt 0.379202 0.896844
vt 0.426165 0.896844
vt 0.648710 0.947009
vt 0.620533 0.947009
vt 0.564177 0.890919
vt 0.648710 0.890919
vt 0.320273 0.128294
vt 0.237580 0.130654
vt 0.076154 0.128307
vt 0.158068 0.130414
vt 0.158820 0.870286
vt 0.076155 0.872682
vt 0.130263 0.073841
vt 0.157264 0.073447
vt 0.817778 0.890919
vt 0.733244 0.890919
vt 0.733244 0.101314
vt 0.817777 0.101313
vt 0.761422 0.947009
vt 0.733244 0.947009
vt 0.129779 0.028662
vt 0.156882 0.028397
vt 0.733244 0.044294
vt 0.761422 0.044294
vt 0.131079 0.926552
vt 0.158221 0.926826
vt 0.158080 0.971957
vt 0.130879 0.971869
s 0
f 31/1/1 12/2/1 4/3/1 19/4/1
f 19/4/2 4/3/2 8/5/2 21/6/2
f 27/7/3 16/8/3 6/9/3 23/10/3
f 23/11/4 6/12/4 2/13/4 18/14/4
f 10/15/5 13/16/5 5/17/5 1/18/5
f 16/19/6 11/20/6 2/21/6 6/22/6
f 8/23/7 4/24/7 12/25/7 15/26/7
f 15/26/8 12/25/8 11/20/8 16/19/8
f 3/27/9 7/28/9 14/29/9 9/30/9
f 9/30/10 14/29/10 13/16/10 10/15/10
f 21/31/3 8/32/3 15/33/3 25/34/3
f 25/34/3 15/33/3 16/8/3 27/7/3
f 18/14/11 2/13/11 11/35/11 29/36/11
f 29/36/12 11/35/12 12/2/12 31/1/12
f 10/37/13 30/38/13 32/39/13 9/40/13
f 30/38/14 29/36/14 31/1/14 32/39/14
f 1/41/15 17/42/15 30/38/15 10/37/15
f 17/42/16 18/14/16 29/36/16 30/38/16
f 14/43/3 26/44/3 28/45/3 13/46/3
f 26/44/3 25/34/3 27/7/3 28/45/3
f 7/47/3 22/48/3 26/44/3 14/43/3
f 22/48/3 21/31/3 25/34/3 26/44/3
f 5/49/4 24/50/4 17/42/4 1/41/4
f 24/50/4 23/11/4 18/14/4 17/42/4
f 13/46/3 28/45/3 24/51/3 5/52/3
f 28/45/3 27/7/3 23/10/3 24/51/3
f 3/53/2 20/54/2 22/55/2 7/56/2
f 20/54/2 19/4/2 21/6/2 22/55/2
f 9/40/17 32/39/17 20/54/17 3/53/17
f 32/39/18 31/1/18 19/4/18 20/54/18
