# Blender 4.0.2
# www.blender.org
o Cylinder.005
v 0.000000 0.500000 40.000000
v 0.000000 0.499999 -40.000000
v -0.353554 0.353554 40.000000
v -0.353554 0.353553 -40.000000
v -0.500000 0.000000 40.000000
v -0.500000 -0.000001 -40.000000
v -0.353554 -0.353553 40.000000
v -0.353554 -0.353555 -40.000000
v 0.000000 -0.500000 40.000000
v 0.000000 -0.500001 -40.000000
v 0.353554 -0.353553 40.000000
v 0.353554 -0.353555 -40.000000
v 0.500000 0.000000 40.000000
v 0.500000 -0.000001 -40.000000
v 0.353554 0.353554 40.000000
v 0.353554 0.353553 -40.000000
vn -0.0000 1.0000 -0.0000
vn -0.7071 0.7071 -0.0000
vn -1.0000 -0.0000 -0.0000
vn -0.7071 -0.7071 -0.0000
vn -0.0000 -1.0000 -0.0000
vn 0.7071 -0.7071 -0.0000
vn 1.0000 -0.0000 -0.0000
vn -0.0000 -0.0000 -1.0000
vn 0.7071 0.7071 -0.0000
vn -0.0000 -0.0000 1.0000
vt 0.040197 0.953125
vt 0.955102 0.953125
vt 0.955102 0.957501
vt 0.040197 0.957501
vt 0.955102 0.961878
vt 0.040197 0.961878
vt 0.955102 0.966254
vt 0.040197 0.966254
vt 0.955102 0.970631
vt 0.040197 0.970631
vt 0.040197 0.935619
vt 0.955102 0.935619
vt 0.955102 0.939995
vt 0.040197 0.939996
vt 0.955102 0.944372
vt 0.040197 0.944372
vt 0.103840 0.891957
vt 0.103840 0.904699
vt 0.094830 0.913710
vt 0.082088 0.913710
vt 0.073078 0.904699
vt 0.073078 0.891957
vt 0.082088 0.882947
vt 0.094830 0.882947
vt 0.955102 0.948748
vt 0.040197 0.948748
vt 0.036474 0.904394
vt 0.036474 0.891652
vt 0.045484 0.882642
vt 0.058226 0.882642
vt 0.067236 0.891652
vt 0.067236 0.904394
vt 0.058226 0.913404
vt 0.045484 0.913404
s 1
f 1/1/1 2/2/1 4/3/2 3/4/2
f 3/4/2 4/3/2 6/5/3 5/6/3
f 5/6/3 6/5/3 8/7/4 7/8/4
f 7/8/4 8/7/4 10/9/5 9/10/5
f 9/11/5 10/12/5 12/13/6 11/14/6
f 11/14/6 12/13/6 14/15/7 13/16/7
f 4/17/8 2/18/8 16/19/8 14/20/8 12/21/8 10/22/8 8/23/8 6/24/8
f 13/16/7 14/15/7 16/25/9 15/26/9
f 15/26/9 16/25/9 2/2/1 1/1/1
f 1/27/10 3/28/10 5/29/10 7/30/10 9/31/10 11/32/10 13/33/10 15/34/10
