# Blender 4.0.2
# www.blender.org
o table
v -6.000000 0.239223 6.000000
v -6.000000 -0.260777 6.000000
v -6.000000 0.239223 -6.000000
v -6.000000 -0.260777 -6.000000
v 6.000000 0.239223 6.000000
v 6.000000 -0.260777 6.000000
v 6.000000 0.239223 -6.000000
v 6.000000 -0.260777 -6.000000
v -5.636364 -0.260777 6.000000
v 5.636364 -0.260777 6.000000
v -5.636364 0.239223 -6.000000
v 5.636364 0.239223 -6.000000
v 5.636364 -0.260777 -6.000000
v -5.636364 -0.260777 -6.000000
v 5.636364 0.239223 6.000000
v -5.636364 0.239223 6.000000
v 6.000000 -0.260777 5.636364
v 6.000000 -0.260777 -5.636364
v -6.000000 0.239223 5.636364
v -6.000000 0.239223 -5.636364
v 6.000000 0.239223 -5.636364
v 6.000000 0.239223 5.636364
v -6.000000 -0.260777 -5.636364
v -6.000000 -0.260777 5.636364
v -5.636364 0.239223 5.636364
v -5.636364 0.239223 -5.636364
v 5.636364 0.239223 5.636364
v 5.636364 0.239223 -5.636364
v -5.636364 0.086200 5.636364
v -5.636364 0.086200 -5.636364
v 5.636364 0.086200 5.636364
v 5.636364 0.086200 -5.636364
vn 1.0000 -0.0000 -0.0000
vn -0.0000 -0.0000 -1.0000
vn -0.0000 1.0000 -0.0000
vn -0.0000 -0.0000 1.0000
vn -1.0000 -0.0000 -0.0000
vn -0.0000 -1.0000 -0.0000
vt 0.560826 0.383721
vt 0.076451 0.383721
vt 0.076451 0.362237
vt 0.556514 0.155784
vt 0.072139 0.177268
vt 0.072139 0.155784
vt 0.560826 0.362237
vt 0.572139 0.155784
vt 0.556514 0.177268
vt 0.076451 0.444476
vt 0.560826 0.428851
vt 0.560826 0.444476
vt 0.556514 0.192893
vt 0.060826 0.362237
vt 0.074442 0.245006
vt 0.558817 0.238431
vt 0.558817 0.245006
vt 0.060826 0.383721
vt 0.056514 0.177268
vt 0.056514 0.155784
vt 0.576451 0.362237
vt 0.576451 0.383721
vt 0.560826 0.346612
vt 0.076451 0.346612
vt 0.558817 0.260631
vt 0.026115 0.970127
vt 0.471059 0.525183
vt 0.471059 0.970127
vt 0.072139 0.199468
vt 0.072139 0.192893
vt 0.560826 0.340037
vt 0.076451 0.428851
vt 0.560826 0.422276
vt 0.572139 0.177268
vt 0.074442 0.282116
vt 0.074442 0.260631
vt 0.060826 0.346612
vt 0.074442 0.238431
vt 0.576451 0.444476
vt 0.076451 0.465961
vt 0.026115 0.525183
vt 0.556514 0.199468
vt 0.076451 0.340037
vt 0.076451 0.422276
vt 0.957269 0.979098
vt 0.497971 0.519800
vt 0.957269 0.505447
vt 0.576451 0.428851
vt 0.576451 0.346612
vt 0.060826 0.444476
vt 0.060826 0.428851
vt 0.574442 0.260631
vt 0.574442 0.282115
vt 0.558817 0.282115
vt 0.058817 0.282115
vt 0.058817 0.260631
vt 0.576451 0.465961
vt 0.560826 0.465961
vt 0.060826 0.465961
vt 0.512324 0.979098
vt 0.497971 0.979098
vt 0.497971 0.964745
vt 0.497971 0.505447
vt 0.512324 0.505447
vt 0.971622 0.964745
vt 0.971622 0.979098
vt 0.971622 0.505447
vt 0.971622 0.519800
s 0
f 17/1/1 18/2/1 21/3/1
f 14/4/2 12/5/2 13/6/2
f 21/3/1 22/7/1 17/1/1
f 4/8/2 11/9/2 14/4/2
f 19/10/3 26/11/3 20/12/3
f 26/13/3 12/5/3 11/9/3
f 18/2/1 7/14/1 21/3/1
f 27/15/2 29/16/2 25/17/2
f 18/2/1 8/18/1 7/14/1
f 13/6/2 7/19/2 8/20/2
f 5/21/1 6/22/1 17/1/1
f 27/23/3 21/3/3 28/24/3
f 27/15/3 25/17/3 16/25/3
f 31/26/3 30/27/3 29/28/3
f 26/13/4 32/29/4 28/30/4
f 28/24/5 31/31/5 27/23/5
f 25/32/1 30/33/1 26/11/1
f 4/8/2 3/34/2 11/9/2
f 10/35/4 15/36/4 16/25/4
f 22/7/1 5/21/1 17/1/1
f 28/24/3 7/14/3 12/37/3
f 27/15/2 31/38/2 29/16/2
f 3/39/3 20/12/3 26/11/3
f 24/40/5 19/10/5 20/12/5
f 28/24/3 21/3/3 7/14/3
f 19/10/3 25/32/3 26/11/3
f 31/26/3 32/41/3 30/27/3
f 26/13/4 30/42/4 32/29/4
f 28/24/5 32/43/5 31/31/5
f 25/32/1 29/44/1 30/33/1
f 14/45/6 17/46/6 9/47/6
f 14/4/2 11/9/2 12/5/2
f 26/13/3 28/30/3 12/5/3
f 11/48/3 3/39/3 26/11/3
f 13/6/2 12/5/2 7/19/2
f 27/23/3 22/7/3 21/3/3
f 15/49/3 5/21/3 22/7/3
f 15/49/3 22/7/3 27/23/3
f 19/10/3 1/50/3 16/51/3
f 16/25/3 15/36/3 27/15/3
f 25/32/3 19/10/3 16/51/3
f 1/52/4 2/53/4 9/54/4
f 10/35/4 6/55/4 5/56/4
f 1/52/4 9/54/4 16/25/4
f 9/54/4 10/35/4 16/25/4
f 10/35/4 5/56/4 15/36/4
f 3/39/5 4/57/5 23/58/5
f 24/40/5 2/59/5 1/50/5
f 3/39/5 23/58/5 20/12/5
f 23/58/5 24/40/5 20/12/5
f 24/40/5 1/50/5 19/10/5
f 13/60/6 8/61/6 18/62/6
f 17/46/6 6/63/6 10/64/6
f 13/60/6 18/62/6 17/46/6
f 23/65/6 4/66/6 14/45/6
f 14/45/6 13/60/6 17/46/6
f 17/46/6 10/64/6 9/47/6
f 9/47/6 2/67/6 24/68/6
f 24/68/6 23/65/6 9/47/6
f 23/65/6 14/45/6 9/47/6
