# Blender 4.0.2
# www.blender.org
o top_column.007
v -40.000000 -0.500000 1.500000
v -40.000000 2.500000 1.500000
v 40.000000 -0.500000 1.500000
v 40.000000 2.500000 1.500000
v -40.000000 -4.500000 -1.500000
v -40.000000 2.500000 -1.500000
v 40.000000 -4.500000 -1.500000
v 40.000000 2.500000 -1.500000
v 24.000000 2.500000 1.500000
v -24.000000 2.500000 1.500000
v -24.000000 -0.500000 1.500000
v 24.000000 -0.500000 1.500000
v -24.000000 2.500000 -1.500000
v 24.000000 2.500000 -1.500000
v -24.000000 -4.500000 -1.500000
v 24.000000 -4.500000 -1.500000
vn -0.0000 -0.0000 1.0000
vn 1.0000 -0.0000 -0.0000
vn -0.0000 -0.0000 -1.0000
vn -1.0000 -0.0000 -0.0000
vn -0.0000 -0.6000 0.8000
vn -0.0000 1.0000 -0.0000
vt 0.509843 0.881956
vt 0.985067 0.881956
vt 0.985067 0.792851
vt 0.509843 0.792851
vt 0.492618 0.795312
vt 0.017393 0.795312
vt 0.017393 0.884417
vt 0.492618 0.884417
vt 0.242852 0.297832
vt 0.153747 0.179026
vt 0.153747 0.386937
vt 0.242852 0.386937
vt 0.492618 0.438894
vt 0.017393 0.438894
vt 0.017393 0.646805
vt 0.492618 0.646805
vt 0.509843 0.644344
vt 0.985067 0.644344
vt 0.985067 0.436433
vt 0.509843 0.436433
vt 0.376848 0.179026
vt 0.287744 0.297832
vt 0.287744 0.386937
vt 0.376849 0.386937
vt 0.017394 0.973521
vt 0.492618 0.973521
vt 0.985067 0.971060
vt 0.509843 0.971061
vt 0.134274 0.180576
vt 0.045170 0.299383
vt 0.045170 0.388487
vt 0.134274 0.388487
vt 0.408723 0.177476
vt 0.408723 0.385387
vt 0.497827 0.385387
vt 0.497827 0.296282
s 0
f 4/1/1 9/2/1 12/3/1 3/4/1
f 1/5/1 11/6/1 10/7/1 2/8/1
f 3/9/2 7/10/2 8/11/2 4/12/2
f 6/13/3 13/14/3 15/15/3 5/16/3
f 7/17/3 16/18/3 14/19/3 8/20/3
f 5/21/4 1/22/4 2/23/4 6/24/4
f 5/16/5 15/15/5 11/6/5 1/5/5
f 3/4/5 12/3/5 16/18/5 7/17/5
f 10/7/6 13/25/6 6/26/6 2/8/6
f 14/27/6 9/2/6 4/1/6 8/28/6
f 16/29/4 12/30/4 9/31/4 14/32/4
f 15/33/2 13/34/2 10/35/2 11/36/2
