# Blender 4.0.2
# www.blender.org
o Cube.012
v 17.000000 -1.750000 -2.000031
v 14.237499 -5.000000 -2.000031
v 16.864794 -2.754305 -2.000031
v 16.472410 -3.660302 -2.000031
v 15.861257 -4.379305 -2.000031
v 15.091159 -4.840934 -2.000031
v 14.237499 5.000000 -2.000031
v 17.000000 1.750000 -2.000031
v 15.091159 4.840935 -2.000031
v 15.861257 4.379305 -2.000031
v 16.472410 3.660301 -2.000031
v 16.864794 2.754305 -2.000031
v 14.237499 -5.000000 1.999969
v 17.000000 -1.750000 1.999969
v 15.091159 -4.840934 1.999969
v 15.861257 -4.379305 1.999969
v 16.472410 -3.660302 1.999969
v 16.864794 -2.754305 1.999969
v 17.000000 1.750000 1.999969
v 14.237499 5.000000 1.999969
v 16.864794 2.754305 1.999969
v 16.472410 3.660301 1.999969
v 15.861257 4.379305 1.999969
v 15.091159 4.840935 1.999969
v -14.237499 -5.000000 -2.000031
v -17.000000 -1.750000 -2.000031
v -15.091159 -4.840934 -2.000031
v -15.861257 -4.379305 -2.000031
v -16.472410 -3.660302 -2.000031
v -16.864794 -2.754305 -2.000031
v -17.000000 1.750000 -2.000031
v -14.237499 5.000000 -2.000031
v -16.864794 2.754305 -2.000031
v -16.472410 3.660301 -2.000031
v -15.861257 4.379305 -2.000031
v -15.091159 4.840935 -2.000031
v -17.000000 -1.750000 1.999969
v -14.237499 -5.000000 1.999969
v -16.864794 -2.754305 1.999969
v -16.472410 -3.660302 1.999969
v -15.861257 -4.379305 1.999969
v -15.091159 -4.840934 1.999969
v -14.237499 5.000000 1.999969
v -17.000000 1.750000 1.999969
v -15.091159 4.840935 1.999969
v -15.861257 4.379305 1.999969
v -16.472410 3.660301 1.999969
v -16.864794 2.754305 1.999969
v -14.618034 -3.902113 -2.000031
v -14.000000 -4.000000 -2.000031
v 14.000000 4.000000 -2.000031
v 14.618034 3.902113 -2.000031
v -15.618034 -3.175570 -2.000031
v -15.175570 -3.618034 -2.000031
v -16.000000 -2.000000 -2.000031
v -16.000000 2.000000 -2.000031
v -15.902113 -2.618034 -2.000031
v -14.000000 4.000000 -2.000031
v -15.175570 3.618034 -2.000031
v -15.618034 3.175570 -2.000031
v -14.618034 3.902113 -2.000031
v 15.902113 -2.618034 -2.000031
v 16.000000 -2.000000 -2.000031
v 15.618034 -3.175570 -2.000031
v 14.618034 -3.902113 -2.000031
v 15.175570 -3.618034 -2.000031
v 16.000000 2.000000 -2.000031
v 15.618034 3.175570 -2.000031
v 15.902113 2.618034 -2.000031
v 15.175570 3.618034 -2.000031
v 14.000000 -4.000000 -2.000031
v -15.902113 2.618034 -2.000031
v 14.000000 -4.000000 1.999969
v 14.618034 -3.902113 1.999969
v -14.618034 3.902113 1.999969
v -14.000000 4.000000 1.999969
v 16.000000 -2.000000 1.999969
v 15.902113 -2.618034 1.999969
v 16.000000 2.000000 1.999969
v 15.618034 -3.175570 1.999969
v 15.175570 -3.618034 1.999969
v 15.618034 3.175570 1.999969
v 15.175570 3.618034 1.999969
v 14.000000 4.000000 1.999969
v 14.618034 3.902113 1.999969
v -14.618034 -3.902113 1.999969
v -15.175570 -3.618034 1.999969
v -15.902113 -2.618034 1.999969
v -16.000000 -2.000000 1.999969
v -15.618034 -3.175570 1.999969
v 15.902113 2.618034 1.999969
v -14.000000 -4.000000 1.999969
v -15.618034 3.175570 1.999969
v -15.175570 3.618034 1.999969
v -16.000000 2.000000 1.999969
v -15.902113 2.618034 1.999969
vn -0.0000 -0.0000 -1.0000
vn -0.9978 0.0669 -0.0000
vn -0.9978 -0.0669 -0.0000
vn 0.0920 0.9958 -0.0000
vn -0.0920 0.9958 -0.0000
vn 0.9978 0.0669 -0.0000
vn 0.9978 -0.0669 -0.0000
vn -0.0000 -0.0000 1.0000
vn 0.0920 -0.9958 -0.0000
vn 0.3543 -0.9351 -0.0000
vn 0.6466 -0.7628 -0.0000
vn 0.8491 -0.5283 -0.0000
vn 0.9634 -0.2680 -0.0000
vn 0.3543 0.9351 -0.0000
vn 0.6466 0.7628 -0.0000
vn 0.8491 0.5283 -0.0000
vn 0.9634 0.2680 -0.0000
vn -0.0920 -0.9958 -0.0000
vn -0.3543 -0.9351 -0.0000
vn -0.6466 -0.7628 -0.0000
vn -0.8491 -0.5283 -0.0000
vn -0.9634 -0.2680 -0.0000
vn -0.3543 0.9351 -0.0000
vn -0.6466 0.7628 -0.0000
vn -0.8491 0.5283 -0.0000
vn -0.9634 0.2680 -0.0000
vn 0.9969 0.0785 -0.0000
vn 0.9969 -0.0785 -0.0000
vn -0.0785 -0.9969 -0.0000
vn 0.0785 -0.9969 -0.0000
vn -0.9969 -0.0785 -0.0000
vn -0.9969 0.0785 -0.0000
vn -0.3090 0.9511 -0.0000
vn -0.0785 0.9969 -0.0000
vn -0.5878 0.8090 -0.0000
vn -0.8090 0.5878 -0.0000
vn -0.9511 0.3090 -0.0000
vn -0.3090 -0.9511 -0.0000
vn -0.5878 -0.8090 -0.0000
vn -0.8090 -0.5878 -0.0000
vn -0.9511 -0.3090 -0.0000
vn 0.0785 0.9969 -0.0000
vn 0.3090 0.9511 -0.0000
vn 0.5878 0.8090 -0.0000
vn 0.8090 0.5878 -0.0000
vn 0.9511 0.3090 -0.0000
vn 0.3090 -0.9511 -0.0000
vn 0.5878 -0.8090 -0.0000
vn 0.8090 -0.5878 -0.0000
vn 0.9511 -0.3090 -0.0000
vt 0.834213 0.734162
vt 0.836349 0.765106
vt 0.822241 0.757917
vt 0.070483 0.979151
vt 0.068347 0.948206
vt 0.082455 0.955395
vt 0.829955 0.304288
vt 0.892214 0.358764
vt 0.829955 0.358764
vt 0.665590 0.347841
vt 0.030177 0.437101
vt 0.030177 0.347841
vt 0.830813 0.092877
vt 0.893072 0.147353
vt 0.830813 0.147353
vt 0.834213 0.464622
vt 0.836349 0.495566
vt 0.822241 0.488378
vt 0.070483 0.709611
vt 0.068347 0.678667
vt 0.082455 0.685855
vt 0.830813 0.220671
vt 0.893072 0.207156
vt 0.893072 0.220671
vt 0.830813 0.207156
vt 0.893072 0.193181
vt 0.830813 0.193181
vt 0.893072 0.178493
vt 0.830813 0.178493
vt 0.893072 0.163126
vt 0.830813 0.163126
vt 0.893072 0.019559
vt 0.830813 0.033074
vt 0.830813 0.019559
vt 0.893072 0.033074
vt 0.830813 0.047049
vt 0.893072 0.047049
vt 0.830813 0.061737
vt 0.893072 0.061737
vt 0.830813 0.077104
vt 0.893072 0.077104
vt 0.829955 0.432083
vt 0.892214 0.418567
vt 0.892214 0.432083
vt 0.829955 0.418567
vt 0.892214 0.404592
vt 0.829955 0.404592
vt 0.892214 0.389904
vt 0.829955 0.389904
vt 0.892214 0.374537
vt 0.829955 0.374537
vt 0.892214 0.230970
vt 0.829955 0.244485
vt 0.829955 0.230970
vt 0.892214 0.244486
vt 0.829955 0.258460
vt 0.892214 0.258460
vt 0.829955 0.273148
vt 0.892214 0.273148
vt 0.829955 0.288515
vt 0.892214 0.288515
vt 0.031727 0.336080
vt 0.667140 0.246821
vt 0.667140 0.336080
vt 0.707932 0.370691
vt 0.786378 0.292245
vt 0.786378 0.370691
vt 0.661532 0.032408
vt 0.037545 0.121549
vt 0.037545 0.032408
vt 0.786612 0.079890
vt 0.708167 0.158336
vt 0.708167 0.079890
vt 0.786612 0.207422
vt 0.708167 0.219694
vt 0.708167 0.207422
vt 0.786612 0.195151
vt 0.708167 0.195151
vt 0.786612 0.182879
vt 0.708167 0.182879
vt 0.708167 0.170608
vt 0.786612 0.170608
vt 0.786612 0.158336
vt 0.786612 0.030803
vt 0.708167 0.018532
vt 0.786612 0.018532
vt 0.786612 0.043075
vt 0.708167 0.030803
vt 0.786612 0.055347
vt 0.708167 0.043075
vt 0.786612 0.067618
vt 0.708167 0.055347
vt 0.708167 0.067618
vt 0.707932 0.432050
vt 0.786378 0.419778
vt 0.786378 0.432050
vt 0.707932 0.419778
vt 0.786378 0.407506
vt 0.707932 0.407506
vt 0.786378 0.395235
vt 0.786378 0.382963
vt 0.707932 0.395235
vt 0.707932 0.382963
vt 0.707932 0.230887
vt 0.786378 0.243159
vt 0.707932 0.243159
vt 0.786378 0.255430
vt 0.707932 0.255430
vt 0.786378 0.267702
vt 0.707932 0.267702
vt 0.707932 0.279974
vt 0.786378 0.279974
vt 0.707932 0.292245
vt 0.661533 0.231634
vt 0.037545 0.142493
vt 0.661533 0.142493
vt 0.057151 0.776302
vt 0.049963 0.790410
vt 0.035532 0.764036
vt 0.025603 0.786961
vt 0.050997 0.745843
vt 0.070483 0.734162
vt 0.068347 0.765106
vt 0.092084 0.730137
vt 0.082455 0.757917
vt 0.812612 0.730137
vt 0.098094 0.755440
vt 0.806603 0.755440
vt 0.853700 0.745843
vt 0.869164 0.764036
vt 0.847545 0.776302
vt 0.879093 0.786961
vt 0.854734 0.790410
vt 0.882514 0.812374
vt 0.857210 0.806048
vt 0.882514 0.900938
vt 0.857210 0.907264
vt 0.879093 0.926351
vt 0.854734 0.922902
vt 0.847545 0.937010
vt 0.869164 0.949276
vt 0.853700 0.967469
vt 0.834213 0.979151
vt 0.836349 0.948206
vt 0.812613 0.983176
vt 0.822241 0.955395
vt 0.092084 0.983176
vt 0.806603 0.957872
vt 0.098094 0.957872
vt 0.050996 0.967470
vt 0.035532 0.949276
vt 0.057151 0.937010
vt 0.025603 0.926351
vt 0.049963 0.922903
vt 0.022182 0.900938
vt 0.047486 0.907264
vt 0.022182 0.812374
vt 0.047486 0.806048
vt 0.892214 0.304288
vt 0.665590 0.437101
vt 0.893072 0.092877
vt 0.057151 0.506763
vt 0.049963 0.520870
vt 0.035532 0.494497
vt 0.025603 0.517422
vt 0.050996 0.476303
vt 0.070483 0.464622
vt 0.068347 0.495566
vt 0.092084 0.460597
vt 0.082455 0.488378
vt 0.812612 0.460597
vt 0.098093 0.485901
vt 0.806603 0.485901
vt 0.853700 0.476303
vt 0.869164 0.494497
vt 0.847545 0.506762
vt 0.879093 0.517422
vt 0.854733 0.520870
vt 0.882514 0.542835
vt 0.857210 0.536509
vt 0.882514 0.631398
vt 0.857210 0.637725
vt 0.879093 0.656811
vt 0.854733 0.653363
vt 0.847545 0.667471
vt 0.869164 0.679737
vt 0.853700 0.697930
vt 0.834213 0.709611
vt 0.836349 0.678667
vt 0.812613 0.713636
vt 0.822241 0.685855
vt 0.092084 0.713636
vt 0.806603 0.688332
vt 0.098093 0.688332
vt 0.050996 0.697930
vt 0.035532 0.679737
vt 0.057151 0.667471
vt 0.025603 0.656811
vt 0.049962 0.653363
vt 0.022182 0.631399
vt 0.047486 0.637725
vt 0.022182 0.542835
vt 0.047486 0.536509
vt 0.031727 0.246821
vt 0.661532 0.121549
vt 0.786612 0.219694
vt 0.786378 0.230887
vt 0.037545 0.231634
s 1
f 27/1/1 54/2/1 49/3/1
f 9/4/1 70/5/1 52/6/1
f 44/7/2 26/8/3 37/9/3
f 20/10/4 32/11/5 43/12/5
f 8/13/6 14/14/7 1/15/7
f 15/16/8 81/17/8 74/18/8
f 45/19/8 94/20/8 75/21/8
f 2/22/9 15/23/10 13/24/9
f 6/25/10 16/26/11 15/23/10
f 5/27/11 17/28/12 16/26/11
f 4/29/12 18/30/13 17/28/12
f 3/31/13 14/14/7 18/30/13
f 20/32/4 9/33/14 7/34/4
f 24/35/14 10/36/15 9/33/14
f 23/37/15 11/38/16 10/36/15
f 22/39/16 12/40/17 11/38/16
f 21/41/17 8/13/6 12/40/17
f 38/42/18 27/43/19 25/44/18
f 42/45/19 28/46/20 27/43/19
f 41/47/20 29/48/21 28/46/20
f 40/49/21 30/50/22 29/48/21
f 39/51/22 26/8/3 30/50/22
f 32/52/5 45/53/23 43/54/5
f 36/55/23 46/56/24 45/53/23
f 35/57/24 47/58/25 46/56/24
f 34/59/25 48/60/26 47/58/25
f 33/61/26 44/7/2 48/60/26
f 38/62/18 2/63/9 13/64/9
f 55/65/27 95/66/28 89/67/27
f 51/68/29 76/69/30 58/70/30
f 67/71/31 77/72/32 79/73/31
f 65/74/33 73/75/34 74/76/33
f 66/77/35 74/76/33 81/78/35
f 64/79/36 81/78/35 80/80/36
f 64/79/36 78/81/37 62/82/37
f 62/82/37 77/72/32 63/83/32
f 52/84/38 84/85/29 51/86/29
f 70/87/39 85/88/38 52/84/38
f 68/89/40 83/90/39 70/87/39
f 69/91/41 82/92/40 68/89/40
f 69/91/41 79/73/31 91/93/41
f 50/94/42 86/95/43 92/96/42
f 49/97/43 87/98/44 86/95/43
f 54/99/44 90/100/45 87/98/44
f 88/101/46 53/102/45 57/103/46
f 89/67/27 57/103/46 55/65/27
f 58/104/30 75/105/47 61/106/47
f 61/106/47 94/107/48 59/108/48
f 59/108/48 93/109/49 60/110/49
f 93/109/49 72/111/50 60/110/49
f 96/112/50 56/113/28 72/111/50
f 71/114/34 92/115/42 73/116/34
f 64/117/1 62/118/1 4/119/1
f 62/118/1 3/120/1 4/119/1
f 4/119/1 5/121/1 64/117/1
f 5/121/1 6/122/1 66/123/1
f 6/122/1 2/124/1 65/125/1
f 2/124/1 25/126/1 71/127/1
f 25/126/1 27/1/1 49/3/1
f 71/127/1 25/126/1 50/128/1
f 27/1/1 28/129/1 54/2/1
f 28/129/1 29/130/1 53/131/1
f 29/130/1 30/132/1 57/133/1
f 30/132/1 26/134/1 55/135/1
f 26/134/1 31/136/1 56/137/1
f 31/136/1 33/138/1 56/137/1
f 33/138/1 72/139/1 56/137/1
f 56/137/1 55/135/1 26/134/1
f 30/132/1 55/135/1 57/133/1
f 6/122/1 65/125/1 66/123/1
f 66/123/1 64/117/1 5/121/1
f 71/127/1 65/125/1 2/124/1
f 28/129/1 53/131/1 54/2/1
f 29/130/1 57/133/1 53/131/1
f 50/128/1 25/126/1 49/3/1
f 60/140/1 72/139/1 34/141/1
f 72/139/1 33/138/1 34/141/1
f 34/141/1 35/142/1 60/140/1
f 35/142/1 36/143/1 59/144/1
f 36/143/1 32/145/1 61/146/1
f 32/145/1 7/147/1 58/148/1
f 7/147/1 9/4/1 52/6/1
f 58/148/1 7/147/1 51/149/1
f 9/4/1 10/150/1 70/5/1
f 10/150/1 11/151/1 68/152/1
f 11/151/1 12/153/1 69/154/1
f 12/153/1 8/155/1 67/156/1
f 8/155/1 1/157/1 63/158/1
f 1/157/1 3/120/1 63/158/1
f 3/120/1 62/118/1 63/158/1
f 63/158/1 67/156/1 8/155/1
f 12/153/1 67/156/1 69/154/1
f 36/143/1 61/146/1 59/144/1
f 59/144/1 60/140/1 35/142/1
f 58/148/1 61/146/1 32/145/1
f 10/150/1 68/152/1 70/5/1
f 11/151/1 69/154/1 68/152/1
f 51/149/1 7/147/1 52/6/1
f 44/7/2 31/159/2 26/8/3
f 20/10/4 7/160/4 32/11/5
f 8/13/6 19/161/6 14/14/7
f 90/162/8 88/163/8 40/164/8
f 88/163/8 39/165/8 40/164/8
f 40/164/8 41/166/8 90/162/8
f 41/166/8 42/167/8 87/168/8
f 42/167/8 38/169/8 86/170/8
f 38/169/8 13/171/8 92/172/8
f 13/171/8 15/16/8 74/18/8
f 92/172/8 13/171/8 73/173/8
f 15/16/8 16/174/8 81/17/8
f 16/174/8 17/175/8 80/176/8
f 17/175/8 18/177/8 78/178/8
f 18/177/8 14/179/8 77/180/8
f 14/179/8 19/181/8 79/182/8
f 19/181/8 21/183/8 79/182/8
f 21/183/8 91/184/8 79/182/8
f 79/182/8 77/180/8 14/179/8
f 18/177/8 77/180/8 78/178/8
f 42/167/8 86/170/8 87/168/8
f 87/168/8 90/162/8 41/166/8
f 92/172/8 86/170/8 38/169/8
f 16/174/8 80/176/8 81/17/8
f 17/175/8 78/178/8 80/176/8
f 73/173/8 13/171/8 74/18/8
f 82/185/8 91/184/8 22/186/8
f 91/184/8 21/183/8 22/186/8
f 22/186/8 23/187/8 82/185/8
f 23/187/8 24/188/8 83/189/8
f 24/188/8 20/190/8 85/191/8
f 20/190/8 43/192/8 84/193/8
f 43/192/8 45/19/8 75/21/8
f 84/193/8 43/192/8 76/194/8
f 45/19/8 46/195/8 94/20/8
f 46/195/8 47/196/8 93/197/8
f 47/196/8 48/198/8 96/199/8
f 48/198/8 44/200/8 95/201/8
f 44/200/8 37/202/8 89/203/8
f 37/202/8 39/165/8 89/203/8
f 39/165/8 88/163/8 89/203/8
f 89/203/8 95/201/8 44/200/8
f 48/198/8 95/201/8 96/199/8
f 24/188/8 85/191/8 83/189/8
f 83/189/8 82/185/8 23/187/8
f 84/193/8 85/191/8 20/190/8
f 46/195/8 93/197/8 94/20/8
f 47/196/8 96/199/8 93/197/8
f 76/194/8 43/192/8 75/21/8
f 2/22/9 6/25/10 15/23/10
f 6/25/10 5/27/11 16/26/11
f 5/27/11 4/29/12 17/28/12
f 4/29/12 3/31/13 18/30/13
f 3/31/13 1/15/7 14/14/7
f 20/32/4 24/35/14 9/33/14
f 24/35/14 23/37/15 10/36/15
f 23/37/15 22/39/16 11/38/16
f 22/39/16 21/41/17 12/40/17
f 21/41/17 19/161/6 8/13/6
f 38/42/18 42/45/19 27/43/19
f 42/45/19 41/47/20 28/46/20
f 41/47/20 40/49/21 29/48/21
f 40/49/21 39/51/22 30/50/22
f 39/51/22 37/9/3 26/8/3
f 32/52/5 36/55/23 45/53/23
f 36/55/23 35/57/24 46/56/24
f 35/57/24 34/59/25 47/58/25
f 34/59/25 33/61/26 48/60/26
f 33/61/26 31/159/2 44/7/2
f 38/62/18 25/204/18 2/63/9
f 55/65/27 56/113/28 95/66/28
f 51/68/29 84/205/29 76/69/30
f 67/71/31 63/83/32 77/72/32
f 65/74/33 71/206/34 73/75/34
f 66/77/35 65/74/33 74/76/33
f 64/79/36 66/77/35 81/78/35
f 64/79/36 80/80/36 78/81/37
f 62/82/37 78/81/37 77/72/32
f 52/84/38 85/88/38 84/85/29
f 70/87/39 83/90/39 85/88/38
f 68/89/40 82/92/40 83/90/39
f 69/91/41 91/93/41 82/92/40
f 69/91/41 67/71/31 79/73/31
f 50/94/42 49/97/43 86/95/43
f 49/97/43 54/99/44 87/98/44
f 54/99/44 53/102/45 90/100/45
f 88/101/46 90/100/45 53/102/45
f 89/67/27 88/101/46 57/103/46
f 58/104/30 76/207/30 75/105/47
f 61/106/47 75/105/47 94/107/48
f 59/108/48 94/107/48 93/109/49
f 93/109/49 96/112/50 72/111/50
f 96/112/50 95/66/28 56/113/28
f 71/114/34 50/208/42 92/115/42
