# Blender 4.0.2
# www.blender.org
o wall_east
v 0.500000 -10.000000 -40.000000
v 0.500000 10.000000 -40.000000
v 0.500000 -10.000000 40.000000
v 0.500000 10.000000 40.000000
v -0.500000 -10.000000 -40.000000
v -0.500000 10.000000 -40.000000
v -0.500000 -10.000000 40.000000
v -0.500000 10.000000 40.000000
vn 1.0000 -0.0000 -0.0000
vn -0.0000 -0.0000 1.0000
vn -1.0000 -0.0000 -0.0000
vn -0.0000 -0.0000 -1.0000
vn -0.0000 -1.0000 -0.0000
vn -0.0000 1.0000 -0.0000
vt 0.949643 0.486872
vt 0.949643 0.717254
vt 0.028113 0.717254
vt 0.028113 0.486872
vt 0.070173 0.398576
vt 0.070173 0.168194
vt 0.081692 0.168194
vt 0.081692 0.398576
vt 0.028113 0.967789
vt 0.028113 0.737407
vt 0.949643 0.737407
vt 0.949643 0.967789
vt 0.035422 0.398576
vt 0.035422 0.168194
vt 0.046942 0.168194
vt 0.046942 0.398576
vt 0.028113 0.465944
vt 0.028113 0.454425
vt 0.949643 0.454425
vt 0.949643 0.465944
vt 0.028113 0.446674
vt 0.028113 0.435155
vt 0.949643 0.435155
vt 0.949643 0.446674
s 0
f 1/1/1 2/2/1 4/3/1 3/4/1
f 3/5/2 4/6/2 8/7/2 7/8/2
f 7/9/3 8/10/3 6/11/3 5/12/3
f 5/13/4 6/14/4 2/15/4 1/16/4
f 3/17/5 7/18/5 5/19/5 1/20/5
f 8/21/6 4/22/6 2/23/6 6/24/6
