# Blender 4.0.2
# www.blender.org
o wall_north.001
v -40.000000 -10.902291 -0.500000
v -40.000000 9.097709 -0.500000
v 40.000000 -10.902291 -0.500000
v 40.000000 9.097709 -0.500000
v -40.000000 -10.902291 0.500000
v -40.000000 9.097709 0.500000
v 40.000000 -10.902291 0.500000
v 40.000000 9.097709 0.500000
v -17.000000 -1.599618 -0.500000
v -16.864794 -2.603923 -0.500000
v -17.000000 1.900383 -0.500000
v -16.472410 -3.509920 -0.500000
v -15.861258 -4.228923 -0.500000
v -16.864794 2.904688 -0.500000
v -16.472410 3.810683 -0.500000
v -15.861258 4.529687 -0.500000
v -14.237499 5.150382 -0.500000
v -15.091160 4.991317 -0.500000
v 15.091160 4.991317 -0.500000
v 16.472410 3.810683 -0.500000
v 15.861258 4.529687 -0.500000
v 14.237499 5.150382 -0.500000
v -15.091160 -4.690551 -0.500000
v -14.237499 -4.849618 -0.500000
v 15.091160 -4.690551 -0.500000
v 14.237499 -4.849618 -0.500000
v 15.861258 -4.228923 -0.500000
v 16.864794 2.904688 -0.500000
v 17.000000 -1.599618 -0.500000
v 17.000000 1.900383 -0.500000
v 16.472410 -3.509920 -0.500000
v 16.864794 -2.603923 -0.500000
v -16.472410 3.810683 0.500000
v -15.861258 4.529687 0.500000
v -15.091160 4.991317 0.500000
v 15.091160 4.991317 0.500000
v 14.237499 5.150382 0.500000
v -14.237499 5.150382 0.500000
v 16.472410 -3.509920 0.500000
v 17.000000 -1.599618 0.500000
v 17.000000 1.900383 0.500000
v 16.864794 -2.603923 0.500000
v 16.864794 2.904688 0.500000
v 15.861258 -4.228923 0.500000
v 16.472410 3.810683 0.500000
v 15.861258 4.529687 0.500000
v -17.000000 -1.599618 0.500000
v -17.000000 1.900383 0.500000
v -16.864794 2.904688 0.500000
v -16.472410 -3.509920 0.500000
v -16.864794 -2.603923 0.500000
v -15.091160 -4.690551 0.500000
v -14.237499 -4.849618 0.500000
v -15.861258 -4.228923 0.500000
v 14.237499 -4.849618 0.500000
v 15.091160 -4.690551 0.500000
vn -0.0000 -0.0000 -1.0000
vn 1.0000 -0.0000 -0.0000
vn -0.0000 -0.0000 1.0000
vn -1.0000 -0.0000 -0.0000
vn -0.0000 -1.0000 -0.0000
vn -0.0000 1.0000 -0.0000
vn -0.1832 0.9831 -0.0000
vn -0.5141 0.8577 -0.0000
vn -0.7619 0.6476 -0.0000
vn -0.9176 0.3974 -0.0000
vn -0.9911 0.1334 -0.0000
vn -0.1832 -0.9831 -0.0000
vn -0.5141 -0.8577 -0.0000
vn -0.7619 -0.6476 -0.0000
vn -0.9176 -0.3974 -0.0000
vn -0.9911 -0.1334 -0.0000
vn 0.1832 0.9831 -0.0000
vn 0.5141 0.8577 -0.0000
vn 0.7619 0.6476 -0.0000
vn 0.9176 0.3974 -0.0000
vn 0.9911 0.1334 -0.0000
vn 0.1832 -0.9831 -0.0000
vn 0.5141 -0.8577 -0.0000
vn 0.7619 -0.6476 -0.0000
vn 0.9176 -0.3974 -0.0000
vn 0.9911 -0.1334 -0.0000
vt 0.255286 0.022914
vt 0.255286 0.977086
vt 0.183095 0.669813
vt 0.016743 0.977086
vt 0.016744 0.022914
vt 0.063824 0.330187
vt 0.572916 0.975609
vt 0.560416 0.725609
vt 0.572916 0.725609
vt 0.514928 0.022914
vt 0.514928 0.977086
vt 0.442737 0.669813
vt 0.276385 0.977086
vt 0.276385 0.022914
vt 0.323465 0.330187
vt 0.550153 0.974609
vt 0.537653 0.724609
vt 0.550153 0.724609
vt 0.637865 0.976884
vt 0.650365 0.030928
vt 0.650365 0.976884
vt 0.602949 0.976884
vt 0.615449 0.030928
vt 0.615449 0.976884
vt 1.141523 0.050623
vt 1.129023 0.094373
vt 1.129023 0.050623
vt 0.547794 0.351562
vt 0.535294 0.707500
vt 0.535294 0.351562
vt 1.160078 0.050623
vt 1.172578 0.094373
vt 1.160078 0.094373
vt 1.160078 -0.008259
vt 1.172578 0.002596
vt 1.160078 0.002596
vt 1.172578 0.013819
vt 1.160078 0.013819
vt 1.172578 0.025615
vt 1.160078 0.025615
vt 1.172578 0.037956
vt 1.160078 0.037956
vt 1.172578 0.050623
vt 1.172578 0.142401
vt 1.160078 0.153255
vt 1.160078 0.142401
vt 1.160078 0.131177
vt 1.160078 0.119382
vt 1.172578 0.131177
vt 1.160078 0.107040
vt 1.172578 0.119382
vt 1.172578 0.107040
vt 1.141523 0.002596
vt 1.129023 -0.008259
vt 1.141523 -0.008259
vt 1.129023 0.013819
vt 1.141523 0.013819
vt 1.129023 0.025615
vt 1.141523 0.025615
vt 1.129023 0.037956
vt 1.141523 0.037956
vt 1.129023 0.153255
vt 1.141523 0.142401
vt 1.141523 0.153255
vt 1.129023 0.142401
vt 1.141523 0.131177
vt 1.129023 0.131177
vt 1.141523 0.119382
vt 1.141523 0.107040
vt 1.129023 0.119382
vt 1.129023 0.107040
vt 1.141523 0.094373
vt 0.557860 0.351562
vt 0.570360 0.707500
vt 0.557860 0.707500
vt 0.071227 0.310820
vt 0.065721 0.320005
vt 0.065721 0.679994
vt 0.071227 0.689179
vt 0.079803 0.696469
vt 0.079803 0.303531
vt 0.144332 0.297238
vt 0.090609 0.298851
vt 0.102587 0.297238
vt 0.144332 0.702761
vt 0.090608 0.701149
vt 0.102587 0.702761
vt 0.156311 0.298851
vt 0.156310 0.701149
vt 0.167116 0.696469
vt 0.167117 0.303531
vt 0.175692 0.310820
vt 0.175692 0.689180
vt 0.181198 0.679995
vt 0.181198 0.320005
vt 0.183095 0.330187
vt 0.063824 0.669813
vt 0.560416 0.975609
vt 0.330868 0.310820
vt 0.325363 0.320005
vt 0.325362 0.679994
vt 0.330868 0.689179
vt 0.339444 0.696469
vt 0.339444 0.303531
vt 0.403974 0.297238
vt 0.350250 0.298851
vt 0.362229 0.297238
vt 0.403973 0.702761
vt 0.350250 0.701149
vt 0.362228 0.702761
vt 0.415952 0.298851
vt 0.415952 0.701149
vt 0.426758 0.696469
vt 0.426758 0.303531
vt 0.435334 0.310820
vt 0.435333 0.689180
vt 0.440839 0.679995
vt 0.440839 0.320005
vt 0.442737 0.330187
vt 0.323465 0.669813
vt 0.537653 0.974609
vt 0.637865 0.030928
vt 0.602949 0.030928
vt 0.547794 0.707500
vt 1.172578 -0.008259
vt 1.172578 0.153255
vt 1.129023 0.002596
vt 0.570360 0.351562
s 0
f 3/1/1 1/2/1 24/3/1
f 2/4/1 4/5/1 22/6/1
f 4/7/2 7/8/2 3/9/2
f 5/10/3 7/11/3 55/12/3
f 8/13/3 6/14/3 38/15/3
f 6/16/4 1/17/4 5/18/4
f 7/19/5 1/20/5 3/21/5
f 4/22/6 6/23/6 8/24/6
f 9/25/2 48/26/2 47/27/2
f 17/28/5 37/29/5 38/30/5
f 29/31/4 41/32/4 30/33/4
f 26/34/7 56/35/7 25/36/7
f 25/36/8 44/37/8 27/38/8
f 27/38/9 39/39/9 31/40/9
f 31/40/10 42/41/10 32/42/10
f 32/42/11 40/43/11 29/31/11
f 36/44/12 22/45/12 19/46/12
f 21/47/13 36/44/13 19/46/13
f 20/48/14 46/49/14 21/47/14
f 28/50/15 45/51/15 20/48/15
f 30/33/16 43/52/16 28/50/16
f 23/53/17 53/54/17 24/55/17
f 54/56/18 23/53/18 13/57/18
f 50/58/19 13/57/19 12/59/19
f 51/60/20 12/59/20 10/61/20
f 47/27/21 10/61/21 9/25/21
f 38/62/22 18/63/22 17/64/22
f 35/65/23 16/66/23 18/63/23
f 34/67/24 15/68/24 16/66/24
f 14/69/25 33/70/25 49/71/25
f 49/71/26 11/72/26 14/69/26
f 24/73/6 55/74/6 26/75/6
f 21/76/1 19/77/1 4/5/1
f 2/4/1 18/78/1 16/79/1
f 2/4/1 16/79/1 15/80/1
f 21/76/1 4/5/1 20/81/1
f 4/5/1 3/1/1 29/82/1
f 20/81/1 4/5/1 28/83/1
f 28/83/1 4/5/1 30/84/1
f 1/2/1 2/4/1 9/85/1
f 2/4/1 15/80/1 14/86/1
f 2/4/1 14/86/1 11/87/1
f 30/84/1 4/5/1 29/82/1
f 2/4/1 11/87/1 9/85/1
f 32/88/1 29/82/1 3/1/1
f 1/2/1 9/85/1 10/89/1
f 1/2/1 10/89/1 12/90/1
f 31/91/1 32/88/1 3/1/1
f 27/92/1 31/91/1 3/1/1
f 1/2/1 12/90/1 13/93/1
f 1/2/1 13/93/1 23/94/1
f 25/95/1 27/92/1 3/1/1
f 26/96/1 25/95/1 3/1/1
f 1/2/1 23/94/1 24/3/1
f 24/3/1 26/96/1 3/1/1
f 17/97/1 18/78/1 2/4/1
f 4/5/1 19/77/1 22/6/1
f 22/6/1 17/97/1 2/4/1
f 4/7/2 8/98/2 7/8/2
f 34/99/3 35/100/3 6/14/3
f 8/13/3 36/101/3 46/102/3
f 8/13/3 46/102/3 45/103/3
f 34/99/3 6/14/3 33/104/3
f 6/14/3 5/10/3 47/105/3
f 33/104/3 6/14/3 49/106/3
f 49/106/3 6/14/3 48/107/3
f 7/11/3 8/13/3 40/108/3
f 8/13/3 45/103/3 43/109/3
f 8/13/3 43/109/3 41/110/3
f 48/107/3 6/14/3 47/105/3
f 8/13/3 41/110/3 40/108/3
f 51/111/3 47/105/3 5/10/3
f 7/11/3 40/108/3 42/112/3
f 7/11/3 42/112/3 39/113/3
f 50/114/3 51/111/3 5/10/3
f 54/115/3 50/114/3 5/10/3
f 7/11/3 39/113/3 44/116/3
f 7/11/3 44/116/3 56/117/3
f 52/118/3 54/115/3 5/10/3
f 53/119/3 52/118/3 5/10/3
f 7/11/3 56/117/3 55/12/3
f 55/12/3 53/119/3 5/10/3
f 37/120/3 36/101/3 8/13/3
f 6/14/3 35/100/3 38/15/3
f 38/15/3 37/120/3 8/13/3
f 6/16/4 2/121/4 1/17/4
f 7/19/5 5/122/5 1/20/5
f 4/22/6 2/123/6 6/23/6
f 9/25/2 11/72/2 48/26/2
f 17/28/5 22/124/5 37/29/5
f 29/31/4 40/43/4 41/32/4
f 26/34/7 55/125/7 56/35/7
f 25/36/8 56/35/8 44/37/8
f 27/38/9 44/37/9 39/39/9
f 31/40/10 39/39/10 42/41/10
f 32/42/11 42/41/11 40/43/11
f 36/44/12 37/126/12 22/45/12
f 21/47/13 46/49/13 36/44/13
f 20/48/14 45/51/14 46/49/14
f 28/50/15 43/52/15 45/51/15
f 30/33/16 41/32/16 43/52/16
f 23/53/17 52/127/17 53/54/17
f 54/56/18 52/127/18 23/53/18
f 50/58/19 54/56/19 13/57/19
f 51/60/20 50/58/20 12/59/20
f 47/27/21 51/60/21 10/61/21
f 38/62/22 35/65/22 18/63/22
f 35/65/23 34/67/23 16/66/23
f 34/67/24 33/70/24 15/68/24
f 14/69/25 15/68/25 33/70/25
f 49/71/26 48/26/26 11/72/26
f 24/73/6 53/128/6 55/74/6
