# Blender 4.0.2
# www.blender.org
o Cube.009
v 24.000000 -1.000002 1.000000
v 24.000000 0.999998 1.000000
v 24.000000 -1.000002 -1.000000
v 24.000000 0.999998 -1.000000
v -24.000000 -1.000002 1.000000
v -24.000000 0.999998 1.000000
v -24.000000 -1.000002 -1.000000
v -24.000000 0.999998 -1.000000
vn 1.0000 -0.0000 -0.0000
vn -0.0000 -0.0000 -1.0000
vn -1.0000 -0.0000 -0.0000
vn -0.0000 -0.0000 1.0000
vn -0.0000 -1.0000 -0.0000
vn -0.0000 1.0000 -0.0000
vt 0.082810 0.760498
vt 0.082810 0.721092
vt 0.043405 0.721092
vt 0.043405 0.760498
vt 0.989148 0.873219
vt 0.043405 0.873219
vt 0.043405 0.912625
vt 0.989148 0.912624
vt 0.136168 0.721092
vt 0.096762 0.721092
vt 0.096762 0.760498
vt 0.136168 0.760498
vt 0.043405 0.833813
vt 0.989148 0.833813
vt 0.989148 0.794407
vt 0.043405 0.794407
vt 0.043405 0.952031
vt 0.989148 0.952030
s 0
f 1/1/1 3/2/1 4/3/1 2/4/1
f 3/5/2 7/6/2 8/7/2 4/8/2
f 7/9/3 5/10/3 6/11/3 8/12/3
f 5/13/4 1/14/4 2/15/4 6/16/4
f 3/5/5 1/14/5 5/13/5 7/6/5
f 8/7/6 6/17/6 2/18/6 4/8/6
